<svg xmlns="http://www.w3.org/2000/svg" viewBox="0 0 64 64" role="img" aria-labelledby="title">
  <title id="title">绫季绘境</title>
  <defs>
    <linearGradient id="bg" x1="8" y1="6" x2="57" y2="60" gradientUnits="userSpaceOnUse">
      <stop stop-color="#2B2347"/>
      <stop offset="1" stop-color="#171329"/>
    </linearGradient>
    <linearGradient id="ribbon" x1="13" y1="11" x2="52" y2="52" gradientUnits="userSpaceOnUse">
      <stop stop-color="#F4A6D7"/>
      <stop offset=".5" stop-color="#D99DEB"/>
      <stop offset="1" stop-color="#BBA7FF"/>
    </linearGradient>
    <linearGradient id="pink" x1="21" y1="35" x2="31" y2="52" gradientUnits="userSpaceOnUse">
      <stop stop-color="#F8B6DC"/>
      <stop offset="1" stop-color="#E783BE"/>
    </linearGradient>
    <linearGradient id="violet" x1="43" y1="34" x2="32" y2="52" gradientUnits="userSpaceOnUse">
      <stop stop-color="#D7CBFF"/>
      <stop offset="1" stop-color="#A989F1"/>
    </linearGradient>
  </defs>
  <circle cx="32" cy="32" r="29" fill="url(#bg)"/>
  <circle cx="32" cy="32" r="28.3" fill="none" stroke="#F4A6D7" stroke-opacity=".28" stroke-width="1.4"/>

  <!-- Simplified ribbon aperture, tuned for 16–32 px -->
  <path d="M31.8 8.5c12.3 0 22.3 10 22.3 22.3 0 2.2-.3 4.3-.9 6.3l-8.1-5.2v-1.1c0-7.2-5.9-13.1-13.1-13.1-1.4 0-2.7.2-3.9.6l3.7-9.8Z" fill="url(#ribbon)"/>
  <path d="M53.2 37.1C50.4 48.7 38.6 55.8 27 53c-2.1-.5-4.1-1.3-5.9-2.4l7.2-6.2c.6.2 1.2.4 1.8.6 7 1.7 14.1-2.6 15.8-9.6.3-1.3.4-2.6.3-3.9l7 5.6Z" fill="url(#ribbon)" opacity=".9"/>
  <path d="M21.1 50.6C11 44.3 8 31 14.3 20.9c1.2-1.9 2.6-3.5 4.2-4.9l2.1 9.2c-.4.5-.8 1-1.1 1.5-3.8 6.1-2 14.2 4.2 18.1 1.1.7 2.3 1.2 3.5 1.5l-6.1 4.3Z" fill="url(#ribbon)" opacity=".74"/>
  <path d="M18.5 16c8.9-7.6 22.3-6.5 29.9 2.4 1.4 1.7 2.6 3.5 3.4 5.5l-9.2-2.8c-.3-.5-.7-1-1.1-1.5-4.7-5.5-13-6.2-18.5-1.5-1 .8-1.8 1.8-2.5 2.8l-2-4.9Z" fill="url(#ribbon)" opacity=".55"/>

  <path d="M24.6 39v-8.3a7.4 7.4 0 0 1 14.8 0V39" fill="none" stroke="#F2BB68" stroke-width="1.8" stroke-linecap="round"/>
  <circle cx="32" cy="27.4" r="1.5" fill="#F2BB68"/>
  <path d="M32 53c-9.8-2.8-14-8.8-12.3-18 8.5.8 12.6 5.8 12.3 15.4V53Z" fill="url(#pink)"/>
  <path d="M32 53c9.8-2.8 14-8.8 12.3-18-8.5.8-12.6 5.8-12.3 15.4V53Z" fill="url(#violet)"/>
  <path d="M32 52.6V39.8" stroke="#FFF4FC" stroke-width="1.2" stroke-linecap="round" opacity=".75"/>
</svg>
